<svg viewBox="0 0 1024 1024" xmlns="http://www.w3.org/2000/svg" width="80" height="80">
  <g transform="translate(0.000000,1024.000000) scale(0.100000,-0.100000)" fill="#FFFFFF" stroke="none">
    <path d="M4930 8945 c-287 -61 -518 -242 -632 -493 -53 -117 -78 -240 -79
-382 0 -134 9 -197 42 -299 68 -212 211 -392 429 -541 52 -36 100 -76 107 -90
8 -16 13 -73 13 -166 l0 -141 -67 -6 c-38 -4 -165 -7 -283 -7 -233 0 -481 -14
-540 -30 -57 -15 -103 -51 -128 -100 -21 -40 -23 -56 -20 -155 3 -124 18 -163
77 -202 81 -55 285 -81 770 -99 l184 -7 -6 -491 c-4 -270 -9 -790 -12 -1156
-9 -1189 -15 -1455 -31 -1510 -17 -59 -56 -108 -101 -126 -181 -76 -800 177
-1178 481 -244 196 -462 454 -525 622 -38 103 -20 137 133 245 207 145 307
245 307 305 0 36 -25 78 -67 111 -21 16 -117 85 -213 152 -237 167 -328 236
-658 499 -156 124 -297 235 -315 245 -43 25 -84 16 -94 -22 -5 -15 -8 -187 -7
-382 0 -482 28 -682 139 -1015 162 -485 432 -901 839 -1292 331 -318 623 -514
1231 -826 418 -214 567 -307 765 -476 52 -45 102 -81 112 -81 9 0 50 30 90 66
194 176 401 307 806 512 515 259 744 401 1027 631 580 474 995 1131 1114 1767
40 211 45 298 46 699 0 428 -1 435 -56 435 -39 0 -75 -24 -249 -164 -221 -179
-466 -369 -660 -511 -396 -290 -398 -292 -385 -364 9 -49 133 -170 290 -281
141 -100 169 -135 161 -198 -20 -152 -280 -474 -543 -675 -278 -212 -616 -382
-911 -458 -263 -68 -358 -14 -376 216 -3 39 -9 739 -12 1558 l-7 1487 74 0
c183 0 563 23 674 40 211 33 271 97 269 291 -1 128 -23 171 -109 214 l-60 30
-426 3 -427 3 -6 37 c-11 68 -6 266 7 292 7 14 49 50 93 80 211 144 307 248
389 423 89 186 113 451 60 659 -23 89 -105 252 -162 323 -110 135 -296 255
-473 306 -98 27 -333 35 -430 14z m528 -163 c111 -39 185 -86 262 -163 127
-129 193 -291 189 -469 -2 -52 -2 -50 -11 25 -5 44 -13 94 -18 110 -9 28 -9
28 -4 -7 6 -46 -11 -51 -21 -7 -4 17 -9 29 -11 27 -2 -3 3 -36 11 -74 8 -38
14 -87 14 -109 -1 -34 -3 -31 -10 20 -36 246 -183 447 -414 565 -44 23 -69 38
-55 34 35 -9 117 -52 167 -85 38 -26 42 -27 40 -10 0 11 -5 17 -9 15 -4 -3 -8
4 -8 15 0 11 -5 23 -10 26 -6 4 -8 10 -5 15 7 11 -38 35 -135 71 -41 15 -70
28 -63 29 6 0 47 -13 91 -28z m-131 -28 c-3 -3 -12 -4 -19 -1 -8 3 -5 6 6 6
11 1 17 -2 13 -5z m-84 -290 c59 -20 144 -96 179 -161 107 -197 18 -469 -178
-543 -119 -44 -259 -16 -344 69 -178 178 -142 500 69 615 89 48 171 54 274 20z
m1024 -1740 c-3 -3 -12 -4 -19 -1 -8 3 -5 6 6 6 11 1 17 -2 13 -5z m-74 -51
c-7 -2 -19 -2 -25 0 -7 3 -2 5 12 5 14 0 19 -2 13 -5z m-853 -2240 c0 -707 -2
-1284 -5 -1282 -2 3 -5 423 -5 934 -2 1338 -1 1635 5 1635 3 0 5 -579 5 -1287z
m-63 1165 c-3 -8 -6 -5 -6 6 -1 11 2 17 5 13 3 -3 4 -12 1 -19z m0 -70 c-3 -8
-6 -5 -6 6 -1 11 2 17 5 13 3 -3 4 -12 1 -19z m0 -1835 c-1 -335 -2 -61 -2
607 0 668 1 942 2 608 2 -335 2 -881 0 -1215z m-2432 1306 c72 -58 180 -143
240 -189 152 -115 170 -135 58 -62 -15 9 -24 12 -20 5 8 -13 -66 -57 -77 -46
-3 4 -6 3 -6 0 0 -4 32 -28 70 -53 70 -47 91 -65 48 -43 -71 37 -356 252 -375
282 -4 7 15 -6 42 -29 78 -64 205 -155 205 -147 -1 5 -18 20 -40 35 -25 18
-38 33 -34 42 3 8 -8 43 -24 78 -24 51 -44 76 -112 133 -171 145 -160 143 25
-6z m4825 106 c-7 -8 -70 -63 -141 -121 -71 -59 -129 -108 -129 -110 0 -7 35
10 42 20 5 7 8 4 8 -7 0 -10 5 -15 10 -12 6 4 7 11 4 17 -4 6 -2 8 4 4 10 -6
133 88 227 173 21 20 33 28 26 18 -42 -55 -455 -383 -542 -430 l-34 -19 26 24
c14 13 37 32 50 43 14 11 19 16 12 11 -20 -13 -28 1 -12 21 8 9 -11 -1 -41
-23 -63 -46 -80 -57 -80 -51 0 3 89 72 198 155 108 83 238 185 287 226 93 77
106 86 85 61z m-4915 -185 c10 -11 16 -20 13 -20 -3 0 -13 9 -23 20 -10 11
-16 20 -13 20 3 0 13 -9 23 -20z m4545 -1294 c0 -2 -8 -10 -17 -17 -16 -13
-17 -12 -4 4 13 16 21 21 13 13 13 21 21 13 13 -2 0 -10 -8 -17 -17z m-100 -19
c0 -2 -15 -16 -32 -33 l-33 -29 29 33 c28 30 36 37 36 29z m60 -30 c0 -2 -15
-16 -32 -33 l-33 -29 29 33 c28 30 36 37 36 29z m-3788 -332 c48 -38 123 -94
166 -124 43 -31 89 -64 102 -74 63 -47 -40 20 -134 86 -159 113 -341 272 -442
387 -27 30 12 -4 86 -75 74 -72 174 -161 222 -200z m3558 183 c-106 -100 -310
-256 -442 -339 -47 -30 -84 -57 -82 -61 3 -4 -1 -5 -9 -2 -8 3 -18 0 -23 -7
-4 -8 -3 -10 4 -5 7 4 12 3 12 -2 0 -5 -9 -12 -20 -15 -11 -3 -18 -1 -14 4
3 5 -2 6 -10 3 -9 -3 -13 -11 -9 -17 3 -5 1 -7 -5 -3 -13 7 -83 -24 -77 -35
3 -3 -2 -12 -10 -19 -10 -9 -15 -9 -15 -1 0 6 5 11 12 11 6 0 9 2 6 5 -3 3
-12 3 -19 0 -10 -4 -13 -17 -11 -45 2 -22 6 -40 8 -40 3 0 27 11 55 25 30 16
47 30 43 37 -4 7 -3 8 5 4 15 -10 123 52 115 66 -4 7 -2 8 5 4 28 -18 344 221
541 408 l115 109 -125 -125 c-230 -229 -479 -407 -785 -558 -293 -146 -549 -217
-690 -193 -86 15 -149 48 -201 106 -59 66 -113 178 -119 247 l-5 55 14 -61 c14
-62 51 -143 81 -179 16 -19 16 -19 2 5 -12 21 -12 27 -1 38 7 6 18 12 25 12
8 0 9 4 0 13 -6 9 -7 17 -1 23 6 6 0 29 -15 61 -14 29 -28 67 -31 85 -3 23
1 16 15 -22 12 -30 35 -74 51 -98 17 -24 27 -48 24 -54 -4 -6 -3 -8 3 -5 6 4
22 -2 36 -13 14 -12 48 -31 74 -43 73 -33 232 -30 374 6 275 71 589 228 871
438 114 85 308 256 308 272 0 6 3 7 8 3 4 -5 -36 -49 -88 -98z m-3565 -264 c77
-64 137 -119 90 -83 -128 99 -295 251 -390 356 -58 65 -40 50 71 -59 82 -81
185 -177 229 -214 58 -65 40 -50 71 59 82 81 185 177 229 214z m1882 -76 c-3
-7 -5 -2 -5 12 0 14 2 19 5 13 2 -7 2 -19 0 -25z m-1746 -35 c13 -16 12 -17
-3 -4 -17 13 -22 21 -14 21 2 0 10 -8 17 -17z m70 -50 c13 -16 12 -17 -3 -4
-17 13 -22 21 -14 21 2 0 10 -8 17 -17z"/>
    <path d="M5571 8706 c2 -2 15 -9 29 -15 24 -11 24 -11 6 3 -16 13 -49 24 -35
12z"/>
    <path d="M7369 4853 c-13 -16 -12 -17 4 -4 16 13 21 21 13 21 -2 0 -10 -8 -17
-17z"/>
    <path d="M7419 4853 c-13 -16 -12 -17 4 -4 16 13 21 21 13 21 -2 0 -10 -8 -17
-17z"/>
    <path d="M7379 4823 c-13 -16 -12 -17 4 -4 16 13 21 21 13 21 -2 0 -10 -8 -17
-17z"/>
    <path d="M6255 2910 c-16 -7 -17 -9 -3 -9 9 -1 20 4 23 9 7 11 7 11 -20 0z"/>
    <path d="M6170 2875 c-14 -8 -20 -14 -15 -14 6 0 21 6 35 14 14 8 21 14 15 14
-5 0 -21 -6 -35 -14z"/>
    <path d="M6247 2883 c-4 -3 -7 -15 -7 -25 0 -15 3 -17 19 -8 11 5 26 10 33 9
7 0 2 -5 -12 -11 -38 -15 -54 -16 -67 -5 -9 7 -13 5 -13 -6 0 -8 6 -18 13 -21
6 -3 1 -4 -13 -3 -19 1 -24 7 -22 22 2 16 -1 14 -16 -8 -14 -21 -21 -25 -25
-14 -3 9 -16 13 -39 10 l-33 -4 25 16 c14 9 17 14 8 11 -10 -3 -57 -17 -105
-32 -116 -34 -115 -34 -63 -30 25 2 37 1 28 -1 -10 -2 -18 -11 -18 -19 0 -8
-4 -12 -10 -9 -6 3 -10 -4 -10 -17 0 -13 -4 -18 -8 -13 -4 6 -16 10 -27 10
-11 0 -24 -4 -28 -10 -6 -7 -10 -6 -13 2 -4 8 -14 9 -35 3 -16 -5 -29 -6 -29
-3 0 3 -6 0 -14 -6 -7 -6 -22 -8 -31 -4 -15 5 -17 3 -12 -13 7 -19 7 -19 -8 0
-8 11 -15 15 -15 9 0 -6 -10 -9 -22 -6 -19 4 -20 3 -8 -6 13 -10 13 -12 0 -21
-13 -10 -13 -11 0 -9 8 1 22 0 30 -2 8 -1 -14 -5 -50 -9 l-65 -7 74 -1 c86 -2
217 17 187 28 -11 3 2 6 30 7 53 0 193 49 353 124 l93 43 -24 18 c-24 19 -40
22 -51 11z m-190 -69 c-3 -3 -12 -4 -19 -1 -8 3 -5 6 6 6 11 1 17 -2 13 -5z
m110 -16 c-3 -8 -6 -5 -6 6 -1 11 2 17 5 13 3 -3 4 -12 1 -19z m-139 3 c11 -7
11 -9 -2 -14 -9 -4 -16 -2 -16 4 0 6 -5 7 -12 3 -7 -4 -8 -3 -4 4 8 14 16 15
34 3z"/>
    <path d="M5838 2773 c7 -3 16 -2 19 1 4 3 -2 6 -13 5 -11 0 -14 -3 -6 -6z"/>
    <path d="M5683 2763 c26 -2 68 -2 95 0 26 2 4 3 -48 3 -52 0 -74 -1 -47 -3z"/>
  </g>
</svg>
